<svg width="48" height="48" viewBox="6 6 36 36" fill="none" xmlns="http://www.w3.org/2000/svg">
  <rect x="14" y="7" width="4" height="4.5" rx="1.5" fill="#a99bff" opacity="0.55"/>
  <rect x="22" y="7" width="4" height="4.5" rx="1.5" fill="#a99bff" opacity="0.55"/>
  <rect x="30" y="7" width="4" height="4.5" rx="1.5" fill="#a99bff" opacity="0.55"/>
  <rect x="14" y="36.5" width="4" height="4.5" rx="1.5" fill="#a99bff" opacity="0.55"/>
  <rect x="22" y="36.5" width="4" height="4.5" rx="1.5" fill="#a99bff" opacity="0.55"/>
  <rect x="30" y="36.5" width="4" height="4.5" rx="1.5" fill="#a99bff" opacity="0.55"/>
  <rect x="7" y="14" width="4.5" height="4" rx="1.5" fill="#a99bff" opacity="0.55"/>
  <rect x="7" y="22" width="4.5" height="4" rx="1.5" fill="#a99bff" opacity="0.55"/>
  <rect x="7" y="30" width="4.5" height="4" rx="1.5" fill="#a99bff" opacity="0.55"/>
  <rect x="36.5" y="14" width="4.5" height="4" rx="1.5" fill="#a99bff" opacity="0.55"/>
  <rect x="36.5" y="22" width="4.5" height="4" rx="1.5" fill="#a99bff" opacity="0.55"/>
  <rect x="36.5" y="30" width="4.5" height="4" rx="1.5" fill="#a99bff" opacity="0.55"/>
  <rect x="12.5" y="12.5" width="23" height="23" rx="5" fill="#8b7aff" opacity="0.8"/>
  <rect x="17.5" y="17.5" width="13" height="13" rx="2.5" fill="#c5bcff" opacity="0.5"/>
  <rect x="21" y="21" width="6" height="6" rx="1.5" fill="#fff" opacity="0.85"/>
</svg>
