<svg width="512" height="512" viewBox="0 0 512 512" fill="none" xmlns="http://www.w3.org/2000/svg">
  <rect width="512" height="512" rx="96" fill="#ffffff"/>
  <g transform="translate(64,64) scale(8)">
    <rect x="14" y="5" width="4" height="4.5" rx="1.5" fill="#a99bff" opacity="0.55"/>
    <rect x="22" y="5" width="4" height="4.5" rx="1.5" fill="#a99bff" opacity="0.55"/>
    <rect x="30" y="5" width="4" height="4.5" rx="1.5" fill="#a99bff" opacity="0.55"/>
    <rect x="14" y="38.5" width="4" height="4.5" rx="1.5" fill="#a99bff" opacity="0.55"/>
    <rect x="22" y="38.5" width="4" height="4.5" rx="1.5" fill="#a99bff" opacity="0.55"/>
    <rect x="30" y="38.5" width="4" height="4.5" rx="1.5" fill="#a99bff" opacity="0.55"/>
    <rect x="5" y="14" width="4.5" height="4" rx="1.5" fill="#a99bff" opacity="0.55"/>
    <rect x="5" y="22" width="4.5" height="4" rx="1.5" fill="#a99bff" opacity="0.55"/>
    <rect x="5" y="30" width="4.5" height="4" rx="1.5" fill="#a99bff" opacity="0.55"/>
    <rect x="38.5" y="14" width="4.5" height="4" rx="1.5" fill="#a99bff" opacity="0.55"/>
    <rect x="38.5" y="22" width="4.5" height="4" rx="1.5" fill="#a99bff" opacity="0.55"/>
    <rect x="38.5" y="30" width="4.5" height="4" rx="1.5" fill="#a99bff" opacity="0.55"/>
    <rect x="10.5" y="10.5" width="27" height="27" rx="6" fill="#8b7aff" opacity="0.8"/>
    <rect x="16" y="16" width="16" height="16" rx="3" fill="#c5bcff" opacity="0.5"/>
    <rect x="20" y="20" width="8" height="8" rx="2" fill="#fff" opacity="0.85"/>
  </g>
</svg>
